<svg xmlns="http://www.w3.org/2000/svg" width="19.694" height="18.98" viewBox="0 0 19.694 18.98">
  <g id="basket" transform="translate(-2.153 -2.02)">
    <path id="Union" d="M3.546,4.98,7.944.765a2.75,2.75,0,0,1,3.805,0l4.4,4.215h2.546a1,1,0,0,1,.99,1.141L18.215,16.4a3,3,0,0,1-2.97,2.576H4.449A3,3,0,0,1,1.479,16.4L.01,6.121A1,1,0,0,1,1,4.98ZM8.982,1.848a1.25,1.25,0,0,1,1.73,0L13.981,4.98H5.714ZM1.577,6.48l1.387,9.712A1.5,1.5,0,0,0,4.449,17.48h10.8a1.5,1.5,0,0,0,1.485-1.288L18.118,6.48Z" transform="translate(2.153 2.02)"/>
    <path id="Vector_606_Stroke_" data-name="Vector 606 (Stroke)" d="M.75,0A.75.75,0,0,1,1.5.75v4a.75.75,0,0,1-1.5,0v-4A.75.75,0,0,1,.75,0Z" transform="translate(7.25 11.25)"/>
    <path id="Vector_607_Stroke_" data-name="Vector 607 (Stroke)" d="M.75,0A.75.75,0,0,1,1.5.75v4a.75.75,0,0,1-1.5,0v-4A.75.75,0,0,1,.75,0Z" transform="translate(11.25 11.25)"/>
    <path id="Vector_608_Stroke_" data-name="Vector 608 (Stroke)" d="M.75,0A.75.75,0,0,1,1.5.75v4a.75.75,0,0,1-1.5,0v-4A.75.75,0,0,1,.75,0Z" transform="translate(15.25 11.25)"/>
  </g>
</svg>
