<svg xmlns="http://www.w3.org/2000/svg" width="17.5" height="19.75" viewBox="0 0 17.5 19.75">
  <g id="person" transform="translate(-3.25 -2)">
    <path id="Ellipse_132_Stroke_" data-name="Ellipse 132 (Stroke)" d="M5,8.5A3.5,3.5,0,1,0,1.5,5,3.5,3.5,0,0,0,5,8.5ZM5,10A5,5,0,1,0,0,5,5,5,0,0,0,5,10Z" transform="translate(7 2)"/>
    <path id="Vector_631_Stroke_" data-name="Vector 631 (Stroke)" d="M5.75,1.5A4.25,4.25,0,0,0,1.5,5.75v1a.75.75,0,0,1-1.5,0v-1A5.75,5.75,0,0,1,5.75,0h6A5.75,5.75,0,0,1,17.5,5.75v1a.75.75,0,0,1-1.5,0v-1A4.25,4.25,0,0,0,11.75,1.5Z" transform="translate(3.25 14.25)"/>
  </g>
</svg>
