<svg xmlns="http://www.w3.org/2000/svg" width="441.976" height="114.456" viewBox="0 0 441.976 114.456">
  <g id="Text-logo" transform="translate(-182.184 -273.824)">
    <path id="maliko." d="M23.1,112.176H0V36.632H22.04V45.3a19.811,19.811,0,0,1,8.968-7.9,29.474,29.474,0,0,1,12.768-3.04q16.264,0,22.344,11.856,8.208-11.856,23.408-11.856,11.856,0,19.912,7.3,8.056,7.144,8.056,21.584v48.944H95.152V68.4a13.4,13.4,0,0,0-3.04-9.12q-3.04-3.648-8.968-3.648t-9.272,3.8a13.336,13.336,0,0,0-3.344,9.12v43.624h-22.8V68.4a13,13,0,0,0-3.192-9.12q-3.04-3.648-8.968-3.648a11.525,11.525,0,0,0-9.12,3.8A13.541,13.541,0,0,0,23.1,68.7Z" transform="translate(182.184 273.824)" fill="#383838"/>
    <path id="maliko.-2" data-name="maliko." d="M120.288,91.352q0-9.576,6.232-15.352,6.232-5.928,16.112-7.448l17.784-2.736q5.472-.76,5.472-5.168a6.944,6.944,0,0,0-3.04-5.776q-2.888-2.432-8.056-2.432a12.854,12.854,0,0,0-9.272,3.344,11.427,11.427,0,0,0-3.648,7.752l-20.064-4.1q.76-9.424,9.272-17.176,8.664-7.9,23.864-7.9,17.176,0,25.232,8.208,8.208,8.208,8.208,20.976v36.936a61.515,61.515,0,0,0,.912,11.7H168.472a36.933,36.933,0,0,1-.76-8.512q-6.536,10.64-21.28,10.64-12.008,0-19.152-6.688A21.979,21.979,0,0,1,120.288,91.352Zm31.768,6.232a14.366,14.366,0,0,0,9.88-3.5q3.952-3.5,3.952-11.552V79.192L151.6,81.472q-8.512,1.368-8.512,8.36a7.738,7.738,0,0,0,2.128,5.472Q147.5,97.584,152.056,97.584Z" transform="translate(182.184 273.824)" fill="#383838"/>
    <path id="maliko.-3" data-name="maliko." d="M218.768,112.176h-23.1V2.128h23.1Z" transform="translate(182.184 273.824)" fill="#383838"/>
    <path id="maliko.-4" data-name="maliko." d="M250.1,112.176H227V36.632h23.1ZM228.973,23.1a13.041,13.041,0,0,1-3.952-9.576,13.041,13.041,0,0,1,3.952-9.576A12.866,12.866,0,0,1,238.4,0a13.041,13.041,0,0,1,9.576,3.952,12.8,12.8,0,0,1,4.1,9.576,12.8,12.8,0,0,1-4.1,9.576,13.041,13.041,0,0,1-9.576,3.952A12.866,12.866,0,0,1,228.973,23.1Z" transform="translate(182.184 273.824)" fill="#383838"/>
    <path id="maliko.-5" data-name="maliko." d="M334.18,36.632,304.692,68.4l30.1,43.776H306.516l-17.784-26.6-7.448,8.056v18.544h-23.1V2.128h23.1V62.016l22.952-25.384Z" transform="translate(182.184 273.824)" fill="#383838"/>
    <path id="maliko.-6" data-name="maliko." d="M364.989,93.176A16.314,16.314,0,0,0,377,88.312q5.016-4.864,5.016-13.984T377,60.5a16.314,16.314,0,0,0-12.008-4.864A16.642,16.642,0,0,0,352.981,60.5q-5.016,4.864-5.016,13.832t5.016,13.984A16.642,16.642,0,0,0,364.989,93.176Zm0-58.824q17.176,0,28.576,11.248,11.552,11.248,11.552,28.728t-11.552,28.88q-11.4,11.248-28.576,11.248-17.024,0-28.576-11.4T324.861,74.328q0-17.328,11.552-28.576Q347.965,34.352,364.989,34.352Z" transform="translate(182.184 273.824)" fill="#383838"/>
    <path id="maliko.-7" data-name="maliko." d="M4.56,26.6A15.432,15.432,0,0,1,0,15.5,14.926,14.926,0,0,1,4.56,4.56,14.926,14.926,0,0,1,15.5,0,14.926,14.926,0,0,1,26.448,4.56,14.689,14.689,0,0,1,31.16,15.5a15.013,15.013,0,0,1-4.712,10.944A14.689,14.689,0,0,1,15.5,31.16,14.926,14.926,0,0,1,4.56,26.6Z" transform="translate(593 357)" fill="#2e5fde"/>
    <path id="maliko.-8" data-name="maliko." d="M3.952,23.1A13.041,13.041,0,0,1,0,13.528,13.041,13.041,0,0,1,3.952,3.952,12.866,12.866,0,0,1,13.376,0a13.041,13.041,0,0,1,9.576,3.952,12.8,12.8,0,0,1,4.1,9.576,12.8,12.8,0,0,1-4.1,9.576,13.041,13.041,0,0,1-9.576,3.952A12.866,12.866,0,0,1,3.952,23.1Z" transform="translate(407.205 273.824)" fill="#ff5c30"/>
  </g>
</svg>
